<?xml version="1.0" standalone="no"?>
<!DOCTYPE svg PUBLIC "-//W3C//DTD SVG 1.1//EN" "http://www.w3.org/Graphics/SVG/1.1/DTD/svg11.dtd" >
<svg xmlns="http://www.w3.org/2000/svg">
<metadata>
Created by FontForge 20120731 at Mon Jul 11 11:44:04 2016
 By admin
</metadata>
<defs>
<font id="iconfont" horiz-adv-x="1024" >
  <font-face 
    font-family="iconfont"
    font-weight="500"
    font-stretch="normal"
    units-per-em="1024"
    panose-1="2 0 6 3 0 0 0 0 0 0"
    ascent="896"
    descent="-128"
    x-height="792"
    bbox="0 -142 1414 896"
    underline-thickness="50"
    underline-position="-100"
    unicode-range="U+0078-E659"
  />
<missing-glyph horiz-adv-x="374" 
d="M34 0v682h272v-682h-272zM68 34h204v614h-204v-614z" />
    <glyph glyph-name=".notdef" horiz-adv-x="374" 
d="M34 0v682h272v-682h-272zM68 34h204v614h-204v-614z" />
    <glyph glyph-name=".null" horiz-adv-x="0" 
 />
    <glyph glyph-name="nonmarkingreturn" horiz-adv-x="341" 
 />
    <glyph glyph-name="x" unicode="x" horiz-adv-x="1001" 
d="M281 543q-27 -1 -53 -1h-83q-18 0 -36.5 -6t-32.5 -18.5t-23 -32t-9 -45.5v-76h912v41q0 16 -0.5 30t-0.5 18q0 13 -5 29t-17 29.5t-31.5 22.5t-49.5 9h-133v-97h-438v97zM955 310v-52q0 -23 0.5 -52t0.5 -58t-10.5 -47.5t-26 -30t-33 -16t-31.5 -4.5q-14 -1 -29.5 -0.5
t-29.5 0.5h-32l-45 128h-439l-44 -128h-29h-34q-20 0 -45 1q-25 0 -41 9.5t-25.5 23t-13.5 29.5t-4 30v167h911zM163 247q-12 0 -21 -8.5t-9 -21.5t9 -21.5t21 -8.5q13 0 22 8.5t9 21.5t-9 21.5t-22 8.5zM316 123q-8 -26 -14 -48q-5 -19 -10.5 -37t-7.5 -25t-3 -15t1 -14.5
t9.5 -10.5t21.5 -4h37h67h81h80h64h36q23 0 34 12t2 38q-5 13 -9.5 30.5t-9.5 34.5q-5 19 -11 39h-368zM336 498v228q0 11 2.5 23t10 21.5t20.5 15.5t34 6h188q31 0 51.5 -14.5t20.5 -52.5v-227h-327z" />
    <glyph glyph-name="uniE600" unicode="&#xe600;" 
d="M954 25q26 48 14 85.5t-62 74.5q-32 24 -57 38.5t-52.5 23t-51 2t-42.5 -29.5q-3 -2 -7.5 -6t-23.5 -7t-42 3t-63.5 31t-86.5 69q-54 52 -85.5 97t-38.5 71t-3.5 47.5t7.5 27t8 7.5q15 16 24 31t9 31t-1.5 28t-12.5 30.5t-19 30t-25 34.5q-5 6 -7 10q-30 40 -58 58
t-63 13.5t-75 -36.5q-44 -36 -51.5 -94t13.5 -117.5t60 -125t78 -115t77 -88.5l51 -51q31 -31 105.5 -94.5t122.5 -90.5l57 -32q44 -22 85 -33.5t83 -9.5t73 21l2 1q1 1 4.5 3.5t8 5.5t10 8.5t11 12t12 15.5t12.5 20z" />
    <glyph glyph-name="uniE601" unicode="&#xe601;" 
d="M245 117q-74 0 -126.5 52.5t-52.5 126.5t52.5 126.5t126.5 52.5t126.5 -52.5t52.5 -126.5t-52.5 -126.5t-126.5 -52.5zM333 408q-10 0 -17 8q-5 7 -3.5 15.5t8.5 13.5l251 186q7 5 15.5 4t13.5 -8t3.5 -15.5t-7.5 -13.5l-252 -186q-5 -4 -12 -4zM677.5 549
q-54.5 0 -93.5 39t-39 93.5t39 93.5t93.5 39t93.5 -39t39 -93.5t-39 -93.5t-93.5 -39zM741 117q-2 0 -5 1l-337 83q-8 2 -12.5 9.5t-2.5 15.5t9.5 12.5t15.5 2.5l337 -83q8 -2 12.5 -9.5t2.5 -15.5q-4 -16 -20 -16zM839 19q-49 0 -83.5 35t-34.5 84t34.5 83.5t83.5 34.5
t84 -34.5t35 -83.5t-35 -84t-84 -35z" />
    <glyph glyph-name="uniE602" unicode="&#xe602;" 
d="M945 816q8 -9 8 -20.5t-8 -19.5l-282 -280q-8 -8 -19.5 -8t-19.5 8t-8 19.5t8 19.5l282 281q8 8 19.5 8t19.5 -8zM903 772l-172 1q-9 -1 -16 5t-8 15v15q1 8 7 14t14 7l200 -1h11q8 0 14 -6q5 -6 5 -14l-1 -10v-1v-200q-1 -8 -7 -13.5t-14 -5.5h-14q-9 0 -14.5 6t-5.5 14
v1zM79 -48q-8 9 -8 20.5t8 19.5l283 280q8 8 19.5 8t19.5 -9q8 -8 8 -19t-8 -19l-282 -281q-8 -8 -20 -8t-20 8v0zM122 -4l172 -1q9 1 16 -5t7 -15v-15q0 -8 -6 -14t-14 -7l-201 1h-11q-8 0 -14 6q-5 6 -5 14l1 10v1v200q1 8 7 13.5t14 5.5h15q9 0 14.5 -6t5.5 -14v-1z
M945 -48q8 9 8 20.5t-8 19.5l-282 280q-8 8 -19.5 8t-19.5 -9q-8 -8 -8 -19t8 -19l282 -281q8 -8 19.5 -8t19.5 8v0zM903 -4l-172 -1q-9 1 -16 -5t-8 -15v-15q1 -8 7 -14t14 -7l200 1h11q8 0 14 6q5 6 5 14l-1 10v1v200q-1 8 -7 13.5t-14 5.5h-14q-9 0 -14.5 -6t-5.5 -14v-1
zM79 816q-8 -9 -8 -20.5t8 -19.5l283 -280q8 -8 19.5 -8t19.5 8t8 19.5t-8 19.5l-282 281q-8 8 -20 8t-20 -8zM122 772l172 1q9 -1 16 5t7 15v15q0 8 -6 14t-14 7l-201 -1h-11q-8 0 -14 -6q-5 -6 -5 -14l1 -10v-1v-200q1 -8 7 -13.5t14 -5.5h15q9 0 14.5 6t5.5 14v1z" />
    <glyph glyph-name="uniE603" unicode="&#xe603;" 
d="M544 0h64v-64h-64v64zM416 480v352h-352v-352h64v-64h64v64h224zM128 544v224h224v-224h-224zM192 704h96v-96h-96v96zM608 832v-352h352v352h-352zM896 544h-224v224h224v-224zM736 704h96v-96h-96v96zM192 160h96v-96h-96v96zM64 416h64v-64h-64v64zM192 416h64v-64
h-64v64zM256 288h-192v-352h352v352h-96v64h-64v-64zM352 224v-224h-224v224h224zM480 800h64v-96h-64v96zM480 640h64v-64h-64v64zM672 416h-64h-64v96h-64v-96h-160v-64h160h64h64v-64h64v64v64zM672 288h64v-64h-64v64zM480 288h64v-96h-64v96zM480 128h64v-128h-64v128z
M608 192h64v-192h-64v192zM800 288h160v-64h-160v64zM896 416h64v-64h-64v64zM736 416h128v-64h-128v64zM736 192h64v-64h-64v64zM896 128h-32v-64h64v64h32v64h-64v-64zM736 64h64v-64h-64v64zM800 0h160v-64h-160v64z" />
    <glyph glyph-name="uniE604" unicode="&#xe604;" 
d="M962 384q0 186 -132 318t-318 132t-318 -132t-132 -318t132 -318t318 -132t318 132t132 318zM270 224q12 -1 23 -1q70 -1 124 45q-32 0 -57.5 21t-35.5 53q10 -2 19 -3q13 0 26 4q-35 8 -57.5 37t-22.5 68v1q21 -13 45 -14q-44 32 -44 89q0 29 13 53q38 -49 91 -79
t114 -34q-2 12 -2 24q0 44 29 74t70 30q43 -1 73 -35q33 7 63 25q-11 -37 -44 -57q30 3 57 15q-20 -31 -49 -53v-14q0 -52 -19 -104t-53.5 -95.5t-89.5 -70.5t-121 -27q-83 0 -152 48z" />
    <glyph glyph-name="uniE605" unicode="&#xe605;" 
d="M705 473v14q29 22 49 53q-27 -12 -57 -15q33 20 44 57q-30 -18 -63 -25q-30 34 -73 35q-41 0 -70 -30t-29 -74q0 -12 2 -24q-61 4 -114 34t-91 79q-13 -24 -13 -53q0 -57 44 -89q-24 1 -45 14v-1q0 -39 23 -68t57 -37q-13 -4 -26 -4q-10 1 -19 3q10 -32 35.5 -53
t57.5 -21q-55 -46 -124 -45q-11 0 -23 1q69 -48 152 -48q66 0 121 27t89.5 70.5t53.5 95.5t19 104zM962 384q0 186 -132 318t-318 132t-318 -132t-132 -318t132 -318t318 -132t318 132t132 318zM103 384q0 111 54.5 205.5t149 149t205.5 54.5t205.5 -54.5t149 -149
t54.5 -205.5t-54.5 -205.5t-149 -149t-205.5 -54.5t-205.5 54.5t-149 149t-54.5 205.5z" />
    <glyph glyph-name="uniE606" unicode="&#xe606;" horiz-adv-x="1127" 
d="M32 383q0 -71 47 -124.5t118 -64.5l33 -3h184v48h-182l-22 1q-47 8 -90 54.5t-43 92.5q0 41 32.5 87t87.5 65l-16 41q-5 12 -5 26q0 29 25.5 57t63.5 28q32 0 53 -22l52 -36l44 58q38 57 98.5 91t129.5 34q65 0 127 -36.5t100.5 -96t39.5 -121.5v-45l46 -12
q40 -13 64 -45.5t24 -72.5q0 -47 -39.5 -94t-86.5 -54h-210v-48h183l33 3q71 11 118 64.5t47 124.5q0 62 -37 112t-95 70q-2 124 -93.5 211.5t-219.5 87.5q-92 0 -167.5 -46.5t-114.5 -123.5q-39 42 -98 42q-55 0 -93.5 -37.5t-38.5 -90.5q0 -27 11 -52q-50 -24 -80 -70.5
t-30 -102.5zM536 576v-612l-216 132v-48l240 -144l240 144v48l-216 -132v612h-48z" />
    <glyph glyph-name="uniE607" unicode="&#xe607;" 
d="M497 470q0 41 -22 79.5t-58 38.5q-28 0 -45 -21q-14 -18 -14 -48q0 -38 21 -75.5t59 -37.5q25 0 43 17q16 17 16 47zM962 384q0 186 -132 318t-318 132t-318 -132t-132 -318t132 -318t318 -132t318 132t132 318zM650 471h35v-70h69v-34h-69v-70h-35v70h-69v34h69v70z
M270 213q0 49 49 78q39 24 122 30q-19 24 -19 43q0 10 6 25q-14 -1 -20 -1q-49 0 -77.5 30t-28.5 70q0 51 41 86q42 35 114 35h132l-41 -23h-40q46 -38 46 -86q0 -22 -9 -40.5t-18.5 -28t-26.5 -22.5q-18 -18 -18 -32q0 -13 17 -27l23 -18q18 -15 27 -24.5t17.5 -27
t8.5 -38.5q0 -48 -45 -84t-123 -36q-66 0 -101.5 26.5t-35.5 64.5zM463 302q-5 1 -15 1q-36 0 -67 -11q-55 -20 -55 -66q0 -34 31 -56t82 -22q44 0 69 19.5t25 49.5q0 23 -15 39.5t-55 45.5z" />
    <glyph glyph-name="uniE608" unicode="&#xe608;" 
d="M575 242q0 21 -8.5 38.5t-17.5 27t-27 24.5l-23 18q-17 13 -17 27t18 32q17 13 26.5 22.5t18.5 27.5t9 41q0 48 -46 86h40l41 23h-132q-72 0 -114 -35q-41 -35 -41 -86q0 -40 29 -70t77 -30q6 0 20 1q-6 -15 -6 -25q0 -19 19 -43q-83 -6 -122 -30q-49 -29 -49 -78
q0 -38 35.5 -64.5t101.5 -26.5q78 0 123 36t45 84zM438 406q-38 0 -59 37.5t-21 75.5q0 30 14 48q17 21 45 21q36 0 58 -38.5t22 -79.5q0 -31 -16 -47q-17 -17 -43 -17zM439 148q-51 0 -82 22t-31 56q0 46 55 66q31 11 67 11q10 0 15 -1q40 -29 55 -45.5t15 -39.5
q0 -30 -25 -49.5t-69 -19.5zM581 367h69v-70h35v70h69v34h-69v70h-35v-70h-69v-34zM962 384q0 186 -132 318t-318 132t-318 -132t-132 -318t132 -318t318 -132t318 132t132 318zM103 384q0 111 54.5 205.5t149 149t205.5 54.5t205.5 -54.5t149 -149t54.5 -205.5
t-54.5 -205.5t-149 -149t-205.5 -54.5t-205.5 54.5t-149 149t-54.5 205.5z" />
    <glyph glyph-name="uniE609" unicode="&#xe609;" 
d="M965 437q-1 23 -15 43q0 1 -85.5 92.5t-170.5 181.5l-84 90q-35 38 -85 38h-1h-1h-1h-1q-50 0 -85 -38q-338 -361 -340 -364q-14 -20 -15 -43v-6q0 -37 26 -63t63 -26h22v-321q0 -39 30.5 -66.5t73.5 -27.5t74 27.5t31 66.5v321h244v-321q0 -39 31 -66.5t74 -27.5
t73.5 27.5t30.5 66.5v321h22q37 0 63 26t26 63v1v5zM832 760v-1l68 -71q7 -7 17 -7.5t18 6.5l1 1q5 5 6 11v4q1 2 1 3l8 132q1 14 -9 25v0h-1q-10 11 -24 10h-132h-3h-4q-6 -1 -11 -6l-1 -1q-8 -7 -8 -17.5t7 -17.5z" />
    <glyph glyph-name="uniE60A" unicode="&#xe60a;" 
d="M951 -20l-404 404l404 404q9 10 8 20t-8 15q-6 7 -16.5 7.5t-18.5 -7.5l-404 -404l-404 404q-8 8 -19 7.5t-16 -7.5q-18 -17 0 -35l404 -404l-404 -404q-8 -8 -8 -17.5t8 -17.5t17.5 -8t17.5 8l404 404l404 -404q8 -8 17.5 -8t17.5 8t8 18.5t-8 16.5z" />
    <glyph glyph-name="uniE60B" unicode="&#xe60b;" 
d="M512 -71q-92 0 -176.5 36t-145.5 97t-97 145.5t-36 176.5t36 176.5t97 145.5t145.5 97t176.5 36t176.5 -36t145.5 -97t97 -145.5t36 -176.5t-36 -176.5t-97 -145.5t-145.5 -97t-176.5 -36zM512 794q-111 0 -205.5 -55t-149.5 -149.5t-55 -205.5t55 -205.5t149.5 -149.5
t205.5 -55t205.5 55t149.5 149.5t55 205.5t-55 205.5t-149.5 149.5t-205.5 55zM489 634h46v-500h-46v500zM262 407h500v-46h-500v46z" />
    <glyph glyph-name="uniE60C" unicode="&#xe60c;" 
d="M791 414h-249v249q0 13 -9 22t-22 9t-22 -9t-9 -22v-249h-249q-13 0 -22 -9t-9 -22t9 -22t22 -9h249v-249q0 -13 9 -22.5t22 -9.5t22 9.5t9 22.5v249h249q13 0 22.5 9t9.5 22t-9.5 22t-22.5 9zM791 414z" />
    <glyph glyph-name="uniE60D" unicode="&#xe60d;" 
d="M801 -50zM88 535zM123 791q-23 0 -39.5 -16t-16.5 -39.5t16.5 -39.5t39.5 -16t39.5 16t16.5 39.5t-16.5 39.5t-39.5 16zM302 702h625q14 0 23.5 10t9.5 23.5t-9.5 23.5t-23.5 10h-625q-14 0 -24 -10t-10 -23.5t10 -23.5t24 -10zM123 457q-23 0 -39.5 -16.5t-16.5 -39.5
t16.5 -39.5t39.5 -16.5t39.5 16.5t16.5 39.5t-16.5 39.5t-39.5 16.5zM927 434h-625q-14 0 -24 -9.5t-10 -23.5t10 -24t24 -10h625q14 0 23.5 10t9.5 24t-9.5 23.5t-23.5 9.5zM123 99q-23 0 -39.5 -16t-16.5 -39.5t16.5 -39.5t39.5 -16t39.5 16t16.5 39.5t-16.5 39.5
t-39.5 16zM927 77h-625q-14 0 -24 -10t-10 -23.5t10 -23.5t24 -10h625q14 0 23.5 10t9.5 23.5t-9.5 23.5t-23.5 10zM927 84z" />
    <glyph glyph-name="uniE60E" unicode="&#xe60e;" 
d="M511.5 414q86.5 0 148 61.5t61.5 148t-61.5 147.5t-148 61t-147.5 -61t-61 -147.5t61 -148t147.5 -61.5zM564 310q-81 0 -162 -13.5t-150.5 -38.5t-113.5 -66t-44 -91v-157h836v157q0 49 -37.5 90.5t-94 66.5t-118 38.5t-116.5 13.5z" />
    <glyph glyph-name="uniE60F" unicode="&#xe60f;" 
d="M756 -32q-42 0 -79 16t-65 44t-44 65.5t-16 79t16 79t44 65t65 43.5t79 16t79.5 -16t64.5 -43.5t43 -65t16 -79t-16 -79t-43 -65.5t-64.5 -44t-79.5 -16zM857 205h-74v69q0 14 -9 24t-23 10t-22 -10t-8 -24v-69h-64q-14 0 -24 -9.5t-10 -23.5t10 -21t24 -7h64v-71
q0 -14 8 -24t22 -10t23 10t9 24v71h74v-2q14 0 24 8t10 22t-10 23.5t-24 9.5zM611 453q-4 -15 -8 -28q-4 -11 -10 -22.5t-13 -17.5q-9 -7 -12.5 -15t-6 -16.5t-5.5 -17.5t-10 -18q-23 -30 -34.5 -58t-16 -53.5t-2.5 -51t8 -49.5q4 -18 12 -37.5t23.5 -40t39.5 -40t60 -37.5
q-24 -5 -56 -8q-27 -3 -66 -6q-40 -2 -91 -2q-25 0 -59.5 2t-71 5t-72 6.5t-64.5 8t-49.5 9.5t-25.5 9q-9 8 -14 44.5t3 95.5q5 33 26.5 50.5t50 27t60 18t55.5 23.5q19 12 29 22.5t14 21.5t4 23t-1 26q-2 21 -14.5 33t-26.5 24q-8 6 -14 18t-10 23q-5 13 -8 28q-7 2 -13 6
q-5 4 -11 12t-11 24q-5 15 -3.5 28t5.5 22q4 11 11 19q0 34 4 68q4 29 12.5 61.5t27.5 58.5q18 25 38.5 41t42.5 25t44 12.5t41 3.5q26 0 50 -6t44.5 -16t36.5 -22.5t26 -25.5q23 -29 33.5 -63.5t15.5 -65.5q5 -36 4 -72q6 -5 10 -12q4 -6 6 -16t0 -25q-2 -19 -8 -30
t-13 -17q-8 -7 -17 -10z" />
    <glyph glyph-name="uniE610" unicode="&#xe610;" horiz-adv-x="1025" 
d="M840 507q0 88 -44 163t-119.5 118.5t-165 43.5t-165 -43.5t-119.5 -118.5t-44 -163q0 -87 44 -163l284 -408l285 408q44 75 44 163zM511 344q-68 0 -116 47.5t-48 115t48 115.5t116 48t116.5 -48t48.5 -115.5t-48 -115t-117 -47.5z" />
    <glyph glyph-name="uniE611" unicode="&#xe611;" 
d="M763 -16h-502q-48 0 -81.5 33.5t-33.5 80.5v206h-11q-33 0 -56.5 23.5t-23.5 56.5q0 34 25 58l360 313q29 29 71.5 29t72.5 -30l361 -313q24 -25 24 -57q0 -33 -23.5 -56.5t-56.5 -23.5h-11v-206q0 -47 -33.5 -80.5t-81.5 -33.5zM511.5 739q-23.5 0 -40.5 -17l-360 -314
q-10 -10 -10 -24t10 -24.5t24 -10.5h57v-251q0 -28 20 -48.5t49 -20.5h502q29 0 49 20.5t20 48.5v251h57q14 0 24 10.5t10 24.5t-9 24l-361 313q-18 18 -41.5 18z" />
    <glyph glyph-name="uniE612" unicode="&#xe612;" 
d="M948 -7l-207 207q91 108 91 248q0 159 -112.5 271.5t-271.5 112.5t-271.5 -112.5t-112.5 -271.5t112.5 -271.5t271.5 -112.5q140 0 248 91l207 -207q10 -11 24 -11.5t23.5 9t9 23.5t-11.5 24zM448 128q-133 0 -226.5 93.5t-93.5 226.5t93.5 226.5t226.5 93.5t226.5 -93.5
t93.5 -226.5t-93.5 -226.5t-226.5 -93.5z" />
    <glyph glyph-name="uniE613" unicode="&#xe613;" 
d="M769 296l-228 -228v764h-58v-764l-228 228l-52 -52l309 -308l309 308z" />
    <glyph glyph-name="uniE614" unicode="&#xe614;" 
d="M65 598l19 19l428 -428l428 428l19 -19l-447 -447z" />
    <glyph glyph-name="uniE615" unicode="&#xe615;" 
d="M783 497l-45 45l-226 -226l-226 226l-45 -45l271 -271z" />
    <glyph glyph-name="uniE616" unicode="&#xe616;" 
d="M726 831l19 -19l-428 -428l428 -428l-19 -19l-447 447z" />
    <glyph glyph-name="uniE617" unicode="&#xe617;" 
d="M625 113l45 45l-226 226l226 226l-45 45l-271 -271z" />
    <glyph glyph-name="uniE618" unicode="&#xe618;" 
d="M298 831l-19 -19l428 -428l-428 -428l19 -19l447 447z" />
    <glyph glyph-name="uniE619" unicode="&#xe619;" 
d="M399 113l-45 45l226 226l-226 226l45 45l271 -271z" />
    <glyph glyph-name="uniE61A" unicode="&#xe61a;" 
d="M65 170l19 -19l428 428l428 -428l19 19l-447 447z" />
    <glyph glyph-name="uniE61B" unicode="&#xe61b;" 
d="M783 271l-45 -45l-226 226l-226 -226l-45 45l271 271z" />
    <glyph glyph-name="uniE61C" unicode="&#xe61c;" 
d="M291 601q0 21 -12.5 33.5t-33.5 12.5t-37 -13.5t-17 -32.5q0 -20 17 -32.5t37.5 -12.5t33 12t12.5 33zM661 348q0 14 -12.5 25.5t-32.5 10.5q-14 0 -25 -11.5t-12 -24.5q0 -14 12 -24.5t25 -11.5q20 0 32.5 10.5t12.5 25.5zM544 601q0 21 -12.5 33.5t-33.5 12.5
t-37 -13.5t-16 -32.5q0 -20 16 -32.5t37 -12.5t33.5 12t12.5 33zM860 348q0 14 -13.5 25.5t-32.5 10.5q-13 0 -23.5 -11.5t-11.5 -24.5q0 -14 11.5 -24.5t23.5 -11.5q20 0 32.5 10.5t13.5 25.5zM727 546q-15 2 -35 2q-84 0 -154.5 -38t-111.5 -104.5t-40 -143.5
q0 -39 11 -75q-18 -2 -34 -2q-13 0 -24.5 1t-28 3.5t-22.5 3.5t-26.5 5.5t-25.5 4.5l-126 -63l36 108q-145 102 -145 245q0 84 48.5 154.5t132.5 111.5t181 40q88 0 165.5 -32t130.5 -91t68 -130zM1023 266q0 -58 -34 -110.5t-93 -96.5l27 -90l-99 53q-75 -18 -109 -18
q-84 0 -154.5 35t-111.5 96t-41 131.5t41 132t111.5 94.5t154.5 36q81 0 151.5 -36t113.5 -95.5t43 -131.5z" />
    <glyph glyph-name="uniE61D" unicode="&#xe61d;" 
d="M394 114q11 17 6 36t-24 27q-18 8 -39 0t-32 -24q-12 -18 -7.5 -36.5t23 -28t40.5 -0.5t33 26zM444 178q4 7 1.5 14.5t-9.5 9.5q-7 3 -15.5 0t-11.5 -10q-8 -17 8 -25q8 -2 15.5 1t11.5 10zM536 120q-23 -54 -83.5 -79t-119.5 -7q-58 19 -79 68.5t3 99.5q26 49 81.5 74
t111.5 10q60 -15 85.5 -63t0.5 -103zM703 207q-5 50 -47 89.5t-112 58.5t-146 11q-119 -12 -197.5 -75t-70.5 -142q5 -51 48 -90t111 -58t146 -12q120 13 197.5 76t70.5 142zM867 204q0 -37 -19 -74t-58 -73.5t-90 -62.5t-120.5 -45t-144 -16t-147.5 18t-128.5 48.5
t-91.5 81.5t-35 106q0 62 37.5 131.5t105.5 137.5q90 90 182.5 125.5t131.5 -3.5q34 -34 10 -111q-2 -8 0 -11t5 -4t7.5 0t7.5 2l3 1q75 32 132 32t81 -33t0 -94q-1 -8 -2.5 -11t3 -7t6.5 -4.5t9 -2.5q30 -10 55 -25.5t42 -44t18 -61.5zM828 537q22 -25 29 -57.5t-3 -63.5
q-5 -12 -16.5 -18.5t-23.5 -1.5t-18.5 16.5t-1.5 23.5q10 33 -13 58t-57 19q-13 -2 -24 4.5t-13 19.5q-3 14 4.5 24.5t19.5 13.5q32 6 63.5 -3.5t53.5 -34.5zM925 624q46 -51 60 -119t-8 -128q-4 -15 -17.5 -22.5t-28 -1.5t-21 18t-3.5 28q16 44 6.5 91.5t-43.5 84.5
q-33 37 -79 50.5t-92 4.5q-15 -3 -27.5 5.5t-16.5 23t4.5 28t24.5 15.5q65 13 130 -6t111 -72z" />
    <glyph glyph-name="uniE61E" unicode="&#xe61e;" 
d="M891 148h-508q-14 0 -24 -10t-10 -24.5t10 -24.5t24 -10h508q14 0 24.5 10t10.5 24.5t-10.5 24.5t-24.5 10zM891 418h-508q-14 0 -24 -10t-10 -24.5t10 -24.5t24 -10h508q14 0 24.5 10t10.5 24.5t-10.5 24.5t-24.5 10zM383 619h508q14 0 24.5 10t10.5 24.5t-10.5 25
t-24.5 10.5h-508q-14 0 -24 -10.5t-10 -25t10 -24.5t24 -10zM220 732h-86q-15 0 -25 -10t-10 -25v-86q0 -15 10 -25t25 -10h86q14 0 24.5 10t10.5 25v86q0 15 -10.5 25t-24.5 10zM220 462h-86q-15 0 -25 -10.5t-10 -24.5v-87q0 -14 10 -24t25 -10h86q14 0 24.5 10t10.5 24
v87q0 14 -10.5 24.5t-24.5 10.5zM220 191h-86q-15 0 -25 -10t-10 -24v-87q0 -14 10 -24.5t25 -10.5h86q14 0 24.5 10.5t10.5 24.5v87q0 14 -10.5 24t-24.5 10z" />
    <glyph glyph-name="uniE61F" unicode="&#xe61f;" 
d="M512 -62q-12 0 -18 11l-227 433q-46 72 -46 157q0 120 85 205.5t206 85.5t206 -85.5t85 -205.5q0 -78 -39 -146q0 -1 -1 -2l-233 -442q-6 -11 -18 -11zM304 399l208 -397l213 405l2 4q36 59 36 128q0 103 -73.5 176.5t-177.5 73.5t-177.5 -73.5t-73.5 -176.5
q0 -74 41 -137q1 -1 2 -3zM512 435q-39 0 -67 28t-28 67t28 66.5t67 27.5t67 -27.5t28 -66.5t-28 -67t-67 -28zM512 583q-22 0 -38 -15.5t-16 -37.5t16 -38t38 -16t38 16t16 38t-16 37.5t-38 15.5z" />
    <glyph glyph-name="uniE620" unicode="&#xe620;" 
d="M512 -66q-186 0 -318 132t-132 318t132 318t318 132t318 -132t132 -318t-132 -318t-318 -132zM512 795q-111 0 -206 -55t-150 -150t-55 -206t55 -206t150 -150t206 -55t206 55t150 150t55 206t-55 206t-150 150t-206 55zM648 226q-8 0 -14 5l-271 271q-6 6 -6 14t6 14
t14 6t14 -6l271 -271q6 -6 6 -14t-6 -13.5t-14 -5.5zM373 226q-8 0 -13.5 5.5t-5.5 13.5t5 14l278 278q6 5 14 5t13.5 -5.5t5.5 -13.5t-5 -14l-278 -278q-6 -5 -14 -5z" />
    <glyph glyph-name="uniE621" unicode="&#xe621;" 
d="M512 -55l-400 402q-77 80 -77 191q0 114 81 195t195 81q120 0 201 -87q81 87 201 87q114 0 195 -81t81 -195q0 -117 -84 -199zM311 770q-96 0 -164 -68t-68 -164q0 -93 64 -161l369 -370l362 364q71 68 71 167q0 96 -68 164t-164 68q-54 0 -102.5 -23.5t-81.5 -66.5
l-17 -22l-17 22q-33 43 -81.5 66.5t-102.5 23.5z" />
    <glyph glyph-name="uniE622" unicode="&#xe622;" 
d="M512 -55l-400 402q-77 80 -77 191q0 114 81 195t195 81q120 0 201 -87q81 87 201 87q114 0 195 -81t81 -195q0 -117 -84 -199z" />
    <glyph glyph-name="uniE623" unicode="&#xe623;" 
d="M887 472h-239q19 70 25.5 127.5t3 93.5t-15 63.5t-23 41t-26 22t-19.5 10t-9 1.5q-23 0 -36 -8.5t-15.5 -18t-3.5 -21t-2 -13.5q0 -46 -18.5 -94t-44.5 -83t-52 -63.5t-44 -42.5l-19 -15v-473q0 -21 18 -36.5t37 -21.5t34 -6h359q9 0 19 9.5t17 22.5t13 26t9 22l3 9
q39 134 61.5 232t24.5 128l3 31q0 18 -6.5 30t-15 17t-17.5 8t-15 3zM887 472zM252 472h-143q-13 0 -20.5 -7t-8.5 -14l-1 -8l29 -477q0 -14 7.5 -21.5t15.5 -8.5l8 -1h123q12 0 18.5 5t6.5 10l1 5v481q0 16 -9 25.5t-18 9.5zM252 472z" />
    <glyph glyph-name="uniE624" unicode="&#xe624;" 
d="M672 -88q-61 0 -104.5 6t-61.5 12t-47 20q-67 31 -154 43v-25h-137q-37 0 -61 35q-20 31 -20 74v336q0 42 20 73q24 36 61 36h137v-19q143 49 242 124q57 44 85 88q27 44 21 84q-4 23 13 42q14 17 34 17q25 0 51.5 -13.5t42.5 -42.5q27 -47 13 -120q-14 -69 -64 -160h125
q41 0 62 -33q16 -26 16 -64q0 -60 -31 -97q1 -1 1 -2q11 -20 11 -51q0 -45 -20 -87q-13 -26 -31 -40v-12q0 -41 -20 -84q-20 -40 -49 -52q-8 -39 -44 -63q-38 -25 -91 -25zM309 42q45 -5 80.5 -14t51 -15.5t39.5 -17.5q26 -12 42 -17.5t55 -10.5t95 -5q35 0 61 15t26 44v25
h25q8 0 18 14q14 19 21 49q6 26 3 35q3 -8 14 -8v50q10 0 22 25q15 31 15 64q0 18 -4 26q-2 3 -5 3v50q7 0 16 17q12 24 12 54q0 24 -8 37q-7 10 -20 10h-212l23 38q35 59 55 107t24 79.5t2 50t-9 30.5q-16 29 -48 31v-2q17 -109 -126 -218q-112 -86 -272 -137zM168 472
q-12 0 -21.5 -17.5t-9.5 -41.5v-336q0 -24 9.5 -41.5t21.5 -17.5h87v454h-87z" />
    <glyph glyph-name="uniE625" unicode="&#xe625;" horiz-adv-x="1025" 
d="M0 522q0 -55 36 -79q-12 -6 -24 -32.5t-12 -51.5q1 -45 41 -74t104 -29h229q-29 -80 -24 -175t42 -152q36 -57 89 -57q86 0 86 107q0 102 30 171q14 28 67 67t106 39h153q44 0 72.5 33.5t28.5 86.5l-39 416q-8 103 -100 103q-32 1 -55 1q-19 0 -30 -1q-19 0 -50 -23
q-19 -14 -25 -14q-1 0 -7 3t-17 8t-20 9q-43 18 -95 18h-319q-78 0 -118 -28t-40 -79q0 -25 16 -46q-35 -9 -58 -30t-23 -54q0 -14 5.5 -30.5t13.5 -21.5q-19 -5 -41 -31t-22 -54zM802 853h88q18 0 32.5 -15t18.5 -39l40 -433q0 -25 -18 -46.5t-43 -21.5l-150 1
q-1 0 -3.5 -0.5t-3.5 -0.5v530q9 7 18 13q16 12 21 12zM103 578h6v39q-22 8 -22 40q0 25 26.5 38t60.5 13l1 37q-23 5 -22 40q0 68 115 68h330q29 0 66 -18q7 -3 55 -29v-515q-56 -15 -104 -55.5t-64 -71.5q-15 -35 -22 -76.5t-7 -113.5q0 -34 -10 -45t-27 -11
q-13 0 -30.5 12t-28.5 28q-32 51 -34 138t35 167l9 36h-293q-40 2 -70 18t-30 42l1 11q-1 1 0 8.5t5.5 19t12.5 18.5q6 5 12.5 8t9.5 3l3 1v38q-17 2 -25 8q-20 14 -19 45q1 18 22 38.5t38 20.5z" />
    <glyph glyph-name="uniE626" unicode="&#xe626;" 
d="M947 166q-1 21 -13.5 33t-32.5 12q-18 -1 -30 -13t-13 -34q-1 -6 -1 -33v-33q-1 -42 -14 -55.5t-54 -13.5q-18 -1 -160 -1h-369q-64 0 -78.5 14t-14.5 76v44q-5 47 -43 49q-20 1 -33 -12t-15 -37q-1 -17 0 -88q0 -71 33 -104.5t105 -33.5h297h88h226q50 1 83.5 27.5
t37.5 70.5q4 48 1 132zM177 458q87 -86 284 -284q1 -1 5.5 -5t6.5 -6q26 -27 54 -16q9 3 17 11q5 3 8 7q54 52 304 303q9 9 15 17q19 29 -5 55q-22 25 -55 9q-8 -4 -25 -21l-227 -227v367q0 97 -1 110q-2 50 -45 52q-41 1 -47 -49q-1 -6 -1 -39v-242v-181l-6 -3l-6 -3
l-73 73q-139 138 -152 151q-17 17 -36 18t-33 -13q-30 -28 3 -68q2 -2 15 -16z" />
    <glyph glyph-name="uniE627" unicode="&#xe627;" 
d="M916 384q-11 0 -18.5 -7.5t-7.5 -18.5v-364q0 -6 -4.5 -10.5t-10.5 -4.5h-737q-6 0 -10.5 4.5t-4.5 10.5v364q0 11 -7.5 18.5t-18 7.5t-18 -7.5t-7.5 -18.5v-364q0 -27 19.5 -46.5t46.5 -19.5h737q28 0 47.5 19.5t19.5 46.5v364q0 11 -7.5 18.5t-18.5 7.5zM489 99
q7 -8 17.5 -8t18.5 8l241 241q8 8 8 18.5t-7.5 18t-18 7.5t-18.5 -8l-198 -197v593q0 10 -7.5 17.5t-18 7.5t-18 -7.5t-7.5 -17.5v-593l-198 197q-7 8 -17.5 8t-18 -7.5t-7.5 -18t7 -18.5z" />
    <glyph glyph-name="uniE628" unicode="&#xe628;" 
d="M395 451h348v-19h-348v19zM395 510h348v-18h-348v18zM882 444v218h-375h-1h-206h-27v-27v-191h-84l1 -379l83 1v-92v-36h36h538h36v36v92l78 -1v379h-79zM344 608h467v-220h-467v220zM811 10h-467v124h467v-124zM395 564h348v-18h-348v18zM165 160h-30q-8 0 -13 5
q-6 19 -6 89q0 32 1.5 54t2.5 29l2 7q5 5 13 5h29q4 0 7 2t3 5v81q1 7 -5 7h-48q-8 0 -14 -5q-1 -2 -4 -5.5t-10.5 -19t-13.5 -34.5t-10.5 -52.5t-4.5 -73t4.5 -73.5t10.5 -53t13.5 -34t10.5 -19t4 -5q6 -5 14 -5h48q5 0 5 7v80q-2 8 -9 8zM165 160z" />
    <glyph glyph-name="uniE629" unicode="&#xe629;" 
d="M677 201h-35l-8 7q70 82 70 188q0 119 -84.5 203.5t-203.5 84.5t-203.5 -84.5t-84.5 -203.5t84.5 -203.5t203.5 -84.5q106 0 188 70l7 -8v-35l219 -219l66 66zM416 140q-106 0 -181 75t-75 181t75 181t181 75t181 -75t75 -181t-75 -181t-181 -75z" />
    <glyph glyph-name="uniE62A" unicode="&#xe62a;" 
d="M636 255q7 0 55.5 -25t51.5 -30q1 -3 1 -9q0 -18 -10 -43q-9 -22 -40.5 -37.5t-58.5 -15.5q-32 0 -108 36q-56 26 -97 67.5t-85 105.5q-41 61 -40 111v4q1 52 42 91q14 12 30 12q3 0 10 -0.5t11 -0.5q11 0 15 -4t9 -16q4 -11 18.5 -50t14.5 -43q0 -12 -20 -33t-20 -26
q0 -4 3 -9q20 -42 59 -78q32 -31 86 -58q7 -4 12 -4q9 0 31.5 27.5t29.5 27.5zM520 -47q73 0 139.5 28.5t114.5 76.5t76.5 114.5t28.5 139t-28.5 139t-76.5 114.5t-114.5 76.5t-139.5 28.5t-139.5 -28.5t-114.5 -76.5t-76.5 -114.5t-28.5 -139.5q0 -116 69 -210l-45 -133
l138 44q90 -59 197 -59zM520 742q87 0 167 -34t137.5 -92t92 -137.5t34.5 -167t-34.5 -167t-92 -137.5t-137.5 -92t-167 -34q-111 0 -209 53l-238 -76l78 231q-62 102 -62 222q0 88 34.5 167.5t92 137.5t137.5 92t167 34z" />
    <glyph glyph-name="uniE62B" unicode="&#xe62b;" 
d="M520 -72h-108h-128h-108q-28 0 -45 17t-17 45v39v43q-3 54 23 116q36 82 116 208q10 16 17 27q18 26 50 26q2 0 8.5 -0.5t10 0t6 2.5t2.5 6t-0.5 10t-0.5 9v38q0 37 35 48q30 9 57 -5q25 -14 24 -40v-29v-30q0 -5 1.5 -7t6.5 -2q49 1 100 0q5 0 6.5 2t1.5 7q-1 11 0 56
q0 37 35 48q34 10 61 -8q20 -13 20 -36q-1 -11 -1 -31v-31q0 -7 7 -7q3 1 21 0q30 0 47 -22q95 -134 136 -239q23 -57 21 -109q1 -3 0.5 -45t-0.5 -45q0 -27 -17 -44t-44 -17h-344zM319 777q-131 -30 -232 -133q-31 -32 -31 -77q1 -1 0.5 -28t-0.5 -28q1 -28 17.5 -45
t45.5 -17h52h53q30 0 47 17t17 47q0 38 20 71q35 56 100 79q53 19 138 15q65 -2 108 -25q99 -51 99 -149q0 -22 17.5 -38t40.5 -17h113q26 1 42.5 17t16.5 42v28v29q1 48 -33 82q-97 97 -215 126q-91 23 -215 24q-114 0 -201 -20zM522 334q-73 0 -124.5 -50.5t-51.5 -123.5
q0 -71 50.5 -122t121.5 -52q72 0 123.5 50.5t51.5 122.5q1 71 -49.5 122.5t-121.5 52.5zM404 160q0 -48 34 -82t81 -34q49 0 82.5 34t33.5 83q0 47 -34 81t-81 34q-48 0 -82 -34t-34 -82z" />
    <glyph glyph-name="uniE62C" unicode="&#xe62c;" 
d="M392 572q0 -3 -1 -7.5t-6 -17.5t-14 -25.5t-27 -29t-43 -29.5q5 -10 14.5 -26t41.5 -61t67.5 -84t92 -82.5t115.5 -67.5q4 3 9.5 9.5t21.5 22.5t29.5 27.5t27.5 20.5t21 7l251 -109v-6q0 -4 -1.5 -16.5t-5.5 -24.5t-15.5 -29t-28 -32.5t-45 -33t-64.5 -31.5
q-44 -17 -89 -18t-89.5 13.5t-88.5 39.5t-91 64t-91 83.5t-93 100.5q-67 78 -111.5 158t-62 148.5t-16 126t20.5 99.5q40 87 135 77l27 -5z" />
    <glyph glyph-name="uniE62D" unicode="&#xe62d;" horiz-adv-x="1025" 
d="M920 308q7 39 7 76q0 94 -40 177.5t-106 140t-157.5 82t-187.5 8.5q-62 42 -136 42q-98 0 -168 -70t-70 -168q0 -74 42 -136q-7 -39 -7 -76q0 -94 40 -177.5t106 -140t157.5 -82t187.5 -8.5q62 -42 136 -42q98 0 168 70t70 168q0 74 -42 136zM724 -13q-63 0 -113 39
l-10 7l-12 -3q-39 -8 -77 -8q-98 0 -181.5 48.5t-132 132t-48.5 181.5q0 38 8 77l3 12l-8 10q-38 50 -38 113q0 76 54.5 130.5t130.5 54.5q63 0 113 -39l10 -7l12 3q40 8 77 8q98 0 181.5 -48.5t132 -132t48.5 -181.5q0 -38 -9 -77l-2 -12l7 -10q39 -50 39 -113
q0 -76 -54.5 -130.5t-130.5 -54.5zM735 292q0 -53 -32 -91.5t-78.5 -55.5t-100.5 -17q-94 0 -161 36t-67 87q0 25 14 41.5t42 16.5q16 0 29.5 -9t25 -21t25.5 -24.5t36 -21.5t50 -9q36 0 58 14t22 36q0 10 -3.5 17t-8.5 11.5t-16 9t-19 7t-25 6.5q-5 1 -7 2l-81 19
q-69 17 -105.5 49t-36.5 97q0 40 18.5 70.5t49 48t65.5 26t73 8.5q82 0 146 -29.5t64 -75.5q0 -25 -16 -42.5t-42 -17.5q-17 0 -32.5 10t-26 21.5t-32 21.5t-51.5 10q-79 0 -79 -42q0 -22 17 -31t56 -18l58 -13q34 -8 60.5 -17.5t53.5 -26t42 -43t15 -60.5z" />
    <glyph glyph-name="uniE62E" unicode="&#xe62e;" horiz-adv-x="1025" 
d="M919 326q4 29 4 56q0 111 -55.5 206t-150.5 150t-207 55q-34 0 -67 -6q-61 40 -134 40q-103 0 -175 -72t-72 -174q0 -73 40 -134q-5 -32 -5 -65q0 -112 55 -206.5t150.5 -149.5t207.5 -55q37 0 75 7q60 -38 130 -38q103 0 175 72.5t72 174.5q0 76 -43 139zM548 79
q-93 -5 -148 13.5t-101 61.5q-29 28 -35 58.5t8.5 50t40.5 21.5q23 1 43.5 -13.5t39 -35.5t26.5 -27q19 -11 48.5 -20t71 -5t66.5 32q17 20 18 37.5t-10.5 29.5t-32 22t-42.5 16t-45 10q-42 6 -81 19.5t-74 35t-54.5 55t-16.5 72.5q8 79 59.5 124t123.5 52q150 14 244 -67
q24 -20 32.5 -42.5t3 -40t-18.5 -29.5t-29 -14q-14 -1 -34 13t-39 32.5t-49.5 34t-61.5 16.5q-59 1 -92 -38q-31 -35 -4 -65q17 -18 53 -27q17 -4 51 -11.5t52.5 -12t47 -13t46.5 -18t38.5 -23t34.5 -31.5t24 -41q18 -41 6 -81.5t-41.5 -73t-74.5 -54t-94 -23.5z" />
    <glyph glyph-name="uniE62F" unicode="&#xe62f;" horiz-adv-x="1073" 
d="M62 41q0 -44 31.5 -75.5t76 -31.5t75.5 31.5t31 75.5q0 45 -31 76t-75.5 31t-76 -31t-31.5 -76zM426 384q0 -44 31.5 -75.5t76 -31.5t76 31.5t31.5 75.5t-31.5 75.5t-76 31.5t-76 -31.5t-31.5 -75.5zM426 727q0 -45 31.5 -76t76 -31t76 31t31.5 76q0 44 -31.5 75.5
t-76 31.5t-76 -31.5t-31.5 -75.5zM62 727q0 -45 31.5 -76t76 -31t75.5 31t31 76q0 44 -31 75.5t-75.5 31.5t-76 -31.5t-31.5 -75.5zM62 384q0 -44 31.5 -75.5t76 -31.5t75.5 31.5t31 75.5t-31 75.5t-75.5 31.5t-76 -31.5t-31.5 -75.5zM426 41q0 -44 31.5 -75.5t76 -31.5
t76 31.5t31.5 75.5q0 45 -31.5 76t-76 31t-76 -31t-31.5 -76zM791 41q0 -44 31 -75.5t75.5 -31.5t76 31.5t31.5 76t-31.5 75.5t-76 31t-75.5 -31t-31 -76zM791 727q0 -45 31 -76t75.5 -31t76 31t31.5 75.5t-31.5 76t-76 31.5t-75.5 -31.5t-31 -75.5zM791 384q0 -44 31 -75.5
t75.5 -31.5t76 31.5t31.5 75.5t-31.5 75.5t-76 31.5t-75.5 -31.5t-31 -75.5z" />
    <glyph glyph-name="uniE630" unicode="&#xe630;" 
d="M62 179h245v-245h-245v245zM389 507h246v-246h-246v246zM62 507h245v-246h-245v246zM389 834h246v-245h-246v245zM62 834h245v-245h-245v245zM717 179h245v-245h-245v245zM389 179h246v-245h-246v245zM717 834h245v-245h-245v245zM717 507h245v-246h-245v246z" />
    <glyph glyph-name="uniE631" unicode="&#xe631;" horiz-adv-x="1408" 
d="M1142 710h-896v-82l448 -366l448 366v82zM1142 569l-226 -196l226 -250v446zM1142 58l-265 285l-183 -152l-183 152l-265 -285h896zM246 129l220 245l-220 198v-443z" />
    <glyph glyph-name="uniE632" unicode="&#xe632;" 
d="M384 480v160q0 44 31.5 75.5t75.5 31.5t75 -31.5t31 -75.5v-160q40 27 63 69t23 91q0 80 -56.5 136t-136 56t-135.5 -56t-56 -136q0 -49 23 -91t62 -69zM804 283l-194 96q-11 5 -23 5h-32v256q0 27 -19 45.5t-45.5 18.5t-45 -18.5t-18.5 -45.5v-458l-147 30l-10 2
q-20 0 -34 -14l-33 -34l210 -211q19 -19 46 -19h289q24 0 41 15.5t21 39.5l32 224q1 6 1 9q0 20 -11 36t-28 23z" />
    <glyph glyph-name="uniE633" unicode="&#xe633;" 
d="M498 811q-116 0 -214 -57.5t-155 -155.5t-57 -214t57 -214t155 -155.5t214 -57.5t214.5 57.5t155.5 155.5t57 214t-57 214t-155.5 155.5t-214.5 57.5zM680 207l-224 134v256h64v-224l192 -114z" />
    <glyph glyph-name="uniE634" unicode="&#xe634;" 
d="M747 511h-4h-5v83q1 103 -64.5 171.5t-164.5 68.5q-96 0 -161 -68.5t-65 -171.5v-83h-7q-51 0 -87.5 -37.5t-36.5 -89.5v-323q0 -53 36.5 -89.5t87.5 -36.5h471q52 0 88 37.5t36 88.5v323q-1 53 -37.5 90t-86.5 37zM321 596q0 88 53 144.5t135 56.5q83 0 137 -57t54 -144
v-84h-381v84h2zM834 61q0 -37 -25.5 -63.5t-60.5 -26.5h-472q-35 0 -60.5 26.5t-25.5 63.5v323q0 37 25.5 63.5t60.5 26.5h472q35 0 60.5 -26.5t25.5 -63.5v-323zM508 335q-23 0 -38.5 -16.5t-15.5 -39.5q0 -32 28 -49v-92q0 -11 8.5 -19.5t19.5 -8.5t19.5 8.5t8.5 19.5v92
q28 17 28 49q-4 23 -20.5 39.5t-37.5 16.5z" />
    <glyph glyph-name="uniE635" unicode="&#xe635;" 
d="M675 833h-326q-64 0 -109 -45t-45 -109v-589q0 -64 45 -109t109 -45h326q64 0 109 45t45 109v589q0 64 -45 109t-109 45zM790 90q2 -50 -32 -84t-83 -34h-326q-48 0 -83 34.5t-35 83.5v40h559v-40zM793 167h-559v482h559v-482zM234 687q1 45 35 77t80 32h326q46 0 80 -32
t38 -77h-559zM511.5 -3q18.5 0 32.5 13q13 13 13 33q0 18 -13 32q-12 13 -32 13q-19 0 -33 -13q-13 -13 -13 -32t13 -33q14 -13 32.5 -13z" />
    <glyph glyph-name="uniE636" unicode="&#xe636;" 
d="M918 628q-55 4 -103 20q-15 4 -31 10q-34 10 -83 36l-1 1q-12 6 -24 13q-15 9 -33 20h-1v1q-12 8 -23 15q-4 3 -15 11q-1 1 -5 4t-6 4q-43 32 -80 68q-37 -36 -80 -68q-2 -1 -6 -4t-5 -4q-11 -8 -15 -11q-11 -7 -23 -15v-1h-1q-18 -11 -33 -20q-12 -7 -24 -13q0 -1 -1 -1
q-49 -26 -83 -36q-16 -6 -30 -10q-49 -16 -104 -20q1 -8 3 -61h1q13 -180 50 -282q0 -2 1.5 -5t1.5 -5l1 -1q1 -2 1 -3q47 -122 126 -206.5t177 -116.5v-1q22 -7 43 -11q21 4 44 11v1q97 32 176 116.5t126 206.5q1 1 1 3l1 1q1 2 2 5t1 5q37 102 50 282h1q3 53 3 61z
M871 586l-1 -9q-1 -3 -1 -7q-12 -174 -47 -271q-1 -2 -2 -6l-2 -4q0 -2 -1 -3q-44 -113 -116 -191t-159 -107l-6 -2q-12 -4 -23 -6q-11 2 -23 6l-6 2q-87 29 -159 107t-116 190q0 2 -1 5q-1 0 -2 3q-1 4 -2 6q-35 97 -47 271q0 4 -1 7l-1 9v5q38 5 70 16q15 4 32 10
q38 12 90 40q1 0 2 1q12 6 25 14q15 9 34 21q1 0 1 1q13 8 24 16q5 3 14 9l3 2l4 3q5 4 7 6q27 20 52 42q25 -22 52 -42q3 -2 8 -6l4 -3l1 -1q10 -7 14 -10l24 -16l2 -1q19 -12 34 -21q13 -8 25 -14q1 -1 2 -1q52 -28 91 -40q16 -6 30 -10q33 -11 71 -16v-5zM711 484
l-234 -240l-120 123q-6 7 -15 7t-15 -6.5t-6 -15.5t6 -16l135 -138q6 -6 15 -6t15 6l249 256q7 6 7 15t-6.5 15.5t-15.5 6.5t-15 -7z" />
    <glyph glyph-name="uniE637" unicode="&#xe637;" horiz-adv-x="1266" 
d="M913 409l17 39q37 109 -46 137q-84 28 -284 -37q43 37 42 93.5t-39 83.5q-31 23 -75.5 24t-92.5 -17.5t-99.5 -51.5t-99.5 -76t-91 -94t-75 -102.5t-51 -103.5t-19 -96q0 -45 18.5 -91t60 -90.5t100.5 -78.5t146 -55t191 -21q93 0 174.5 14t140.5 37.5t107 55t79 65.5
t52 69.5t30 66.5t9 59q0 33 -11 61t-28 45t-37.5 30t-41.5 19t-38 10t-28 4zM531 -65q-104 -10 -194.5 16.5t-147 81.5t-63 125t38.5 134t129.5 107t188 52.5t194.5 -17t147 -81t63 -124.5t-38.5 -134.5t-130 -107t-187.5 -52.5zM531 -65zM456 348q-85 -14 -136.5 -76
t-39 -135t81.5 -114.5t154 -27t137 76.5t39.5 135t-81.5 114.5t-155 26.5zM437 70q-28 -7 -52.5 5.5t-31.5 37.5t8 48.5t42.5 31t51.5 -5t31 -37.5t-7.5 -48.5t-41.5 -31.5zM532 179q-14 0 -24 10t-10 24t10 24t24 10t24 -10t10 -24t-10 -24t-24 -10zM532 179zM1195 773
q-56 72 -144 102.5t-196 15.5q-18 -3 -29.5 -17.5t-8.5 -33t17.5 -29.5t32.5 -8q173 24 259 -85q38 -49 48 -113t-13 -119q-6 -17 1 -34t24 -24q8 -3 17 -3q29 0 41 27q31 77 17.5 165.5t-66.5 155.5zM1195 773zM898 730q-19 -3 -30 -18t-8.5 -33t17.5 -29t33 -8
q63 9 92 -29q13 -16 16.5 -38t-4.5 -40q-7 -17 0.5 -34t24.5 -24q8 -4 16 -4q30 0 42 28q16 41 9.5 86.5t-34.5 80.5q-61 78 -174 62zM898 730z" />
    <glyph glyph-name="uniE638" unicode="&#xe638;" 
d="M97 834h830v-138h-830v138zM927 211h-207v-277h-416v277h-207l415 415z" />
    <glyph glyph-name="uniE639" unicode="&#xe639;" 
d="M582 749l-441 -442l-45 -243l243 45l442 441q19 20 19 48.5t-19 47.5l-103 103q-19 19 -47.5 19t-48.5 -19zM717 563l-58 -51l-115 115l51 51q15 15 36.5 15t40.5 -15l38 -38q19 -14 20.5 -38.5t-13.5 -38.5zM211 294l295 295l115 -115l-295 -295l-153 -32zM928 0h-832
q-14 0 -23 9t-9 23t9 23t23 9h832q14 0 23 -9t9 -23t-9 -23t-23 -9z" />
    <glyph glyph-name="uniE63A" unicode="&#xe63a;" 
d="M772 609h-520q-10 0 -18 8.5t-8 20t8 19.5t18 8h520q10 0 18 -8t8 -20t-8 -20t-18 -8zM746 46q0 -23 -15.5 -39.5t-36.5 -16.5h-364q-21 0 -36.5 16.5t-15.5 39.5v507h468v-507zM434 750q0 11 7.5 19.5t18.5 8.5h104q11 0 18.5 -8.5t7.5 -19.5v-28h-156v28zM798 722h-156
v56q0 23 -15.5 39.5t-36.5 16.5h-156q-21 0 -36.5 -16.5t-15.5 -39.5v-56h-156q-21 0 -36.5 -16.5t-15.5 -40.5v-56q0 -23 15.5 -39.5t36.5 -16.5v-506q0 -47 30.5 -80t73.5 -33h364q43 0 73.5 33t30.5 80v506q21 0 36 16.5t15 39.5v56q0 24 -15 40t-36 17zM512 46.5
q11 -0.5 18.5 8t7.5 20.5v337q0 12 -7.5 20t-18.5 8t-18.5 -8t-7.5 -20v-337q0 -12 7.5 -20t18.5 -8.5zM382 46.5q11 -0.5 18.5 8t7.5 20.5v337q0 12 -7.5 20t-18.5 8t-18.5 -8t-7.5 -20v-337q0 -12 7.5 -20t18.5 -8.5zM642 46.5q11 -0.5 18.5 8t7.5 20.5v337q0 12 -7.5 20
t-18.5 8t-18.5 -8t-7.5 -20v-337q0 -12 7.5 -20t18.5 -8.5z" />
    <glyph glyph-name="uniE63B" unicode="&#xe63b;" 
d="M512 -66q92 0 175 35.5t143.5 96t96 143.5t35.5 175t-35.5 175t-96 143.5t-143.5 96t-175 35.5t-175 -35.5t-143.5 -96t-96 -143.5t-35.5 -175t35.5 -175t96 -143.5t143.5 -96t175 -35.5zM475 159q0 16 10.5 26.5t26.5 10.5t27 -10.5t11 -26.5t-11 -27t-27 -11t-26.5 11
t-10.5 27zM475 609q0 16 10.5 26.5t26.5 10.5t27 -11t11 -26v-300q0 -16 -11 -27t-26.5 -11t-26.5 11.5t-11 26.5v300z" />
    <glyph glyph-name="uniE63C" unicode="&#xe63c;" 
d="M512.5 834q-122.5 0 -226 -53.5t-164 -146t-60.5 -201.5q0 -97 45 -180t126 -139v-180l170 109q51 -11 106 -11q123 0 227 54t164.5 146t60.5 201q1 109 -59 201.5t-163.5 146t-226 53.5zM513 82q-64 0 -122 16l-112 -70v113q0 3 -16 13q-72 49 -113 122t-41 158
q0 95 54 175.5t146.5 127.5t201.5 47t201.5 -47t146 -127.5t53.5 -175.5q0 -96 -53 -177t-145 -128t-201 -47zM717 529h-400q-11 0 -18 -7.5t-7 -18t7 -18t18 -7.5h400q11 0 18 7.5t7 18t-7 18t-18 7.5zM659 353h-306q-9 0 -15.5 -6.5t-6.5 -15.5v-6q0 -9 6.5 -15.5
t15.5 -6.5h306q9 0 15.5 6.5t6.5 15.5v6q0 9 -6.5 15.5t-15.5 6.5z" />
    <glyph glyph-name="uniE63D" unicode="&#xe63d;" 
d="M306 9l-79 -69l-23 24q-19 22 -21 42v8v7l28 301l65 60l57 -60zM344 445l-68 -63l-55 63l23 267q2 11 3 22.5t2 12.5q2 20 21 35l41 37l60 -67zM628 -5l66 -74l-34 -31q-19 -18 -60 -18h-270q-41 0 -59 18l-27 31l83 74h301zM394 773l-64 66l29 31q26 26 59 26h281
q33 0 56 -26l24 -29l-80 -68h-305zM680 322l69 61l54 -61l-23 -266q0 -8 -1 -16.5t-1.5 -13.5t-0.5 -7q-2 -17 -23 -35l-44 -35l-56 61zM719 752l80 69l19 -22q21 -23 22 -44q2 -13 1 -19l-26 -291l-69 -62l-53 62z" />
    <glyph glyph-name="uniE63E" unicode="&#xe63e;" 
d="M416 774l-58 55l69 67h220l-134 -122h-97zM496 328l65 56l57 -56l-36 -395l-66 -61l-55 61zM534 752l132 120l-38 -423l-67 -65l-54 65z" />
    <glyph glyph-name="uniE63F" unicode="&#xe63f;" 
d="M310 10l-133 -118l33 365q2 19 4 26q4 13 9 19q9 8 23 21l41 40l50 -53zM657 -5l56 -62l-67 -61h-451l138 123h324zM691 343q-13 -12 -26.5 -16.5t-39.5 -4.5h-264l-56 60l44 44q8 9 20 14q11 5 21 5h25h265l56 -60zM383 773l-56 60l65 63h313q23 0 36 -6t27 -22l20 -24
l-78 -71h-327zM725 753l80 71l27 -31q5 -4 12 -21q2 -5 2 -14q1 -4 0 -31l-22 -227q-1 -21 -6.5 -32t-20.5 -26l-42 -40l-56 58z" />
    <glyph glyph-name="uniE640" unicode="&#xe640;" 
d="M606 -5l63 -71l-32 -30q-24 -22 -72 -22h-299l-56 60l77 63h319zM645 445l59 -60l-70 -63h-317l-61 63l71 60h318zM356 773l-58 60l68 63h303q8 0 17 -1l9 -1q19 -2 41 -27l20 -25l-81 -69h-319zM653 303l70 65l27 -28q20 -22 22 -46q1 -15 1 -23l-22 -239q-2 -21 -8 -33
t-23 -27l-35 -31l-58 66zM693 756l80 68l21 -22q18 -21 20 -43q1 -8 -1 -35l-21 -223q-1 -21 -6 -32t-18 -24l-45 -43l-58 58z" />
    <glyph glyph-name="uniE641" unicode="&#xe641;" 
d="M324 458l-64 -60l-29 30q-23 23 -25 46v32l31 327l66 63l54 -63zM647 444l55 -61l-73 -59h-248q-23 0 -28 1q-22 0 -39 15l-38 41l68 63h303zM739 -68l-66 -60l-55 60l34 374l64 57l56 -57zM784 458l-65 -60l-54 61l33 372l66 65l54 -65z" />
    <glyph glyph-name="uniE642" unicode="&#xe642;" 
d="M345 460l-66 -58l-29 32q-22 22 -24 47q-1 14 0 24l33 373l112 -120zM628 -5l64 -71l-31 -29q-13 -14 -28 -18.5t-42 -4.5h-298l-57 60l68 63h324zM395 773l-113 123h450l57 -65l-68 -58h-326zM635 445q27 0 37.5 -5t30.5 -28l28 -29l-73 -61h-249q-36 0 -50.5 5.5
t-33.5 25.5l-27 29l71 63h266zM679 306l68 60l31 -30q18 -20 20 -45q1 -6 0 -34l-18 -207q-5 -52 -26 -70l-43 -39l-58 65z" />
    <glyph glyph-name="uniE643" unicode="&#xe643;" 
d="M326 10l-75 -66l-28 31q-17 20 -18 37q-1 8 1 26l23 262l71 66l52 -56zM367 460l-66 -58l-57 58l22 269q3 23 9 35.5t21 25.5l37 32l60 -64zM650 -5l63 -72l-26 -23q-19 -18 -34 -23t-48 -5h-233q-38 0 -51 4.5t-30 23.5l-22 23l80 72h301zM660 445q23 0 34 -4.5
t26 -21.5l30 -36l-70 -61h-303l-57 61l68 62h272zM415 773l-63 65l35 33q16 15 30.5 20t41.5 5h293l61 -60l-71 -63h-327zM701 306l66 57l35 -37q15 -15 17 -33q2 -20 -1 -45l-17 -202q-4 -28 -10.5 -43t-22.5 -30l-35 -33l-60 67z" />
    <glyph glyph-name="uniE644" unicode="&#xe644;" 
d="M304 774l-57 55l67 67h445l-135 -122h-320zM607 328l68 56l54 -56l-36 -394l-64 -62l-57 62zM645 752l132 121l-38 -424l-64 -65l-57 65z" />
    <glyph glyph-name="uniE645" unicode="&#xe645;" 
d="M304 6l-76 -65l-29 35q-14 15 -15 36q-1 6 1 21l20 232q4 34 21 51l53 49l52 -54zM344 459l-64 -57l-30 32q-22 22 -24 46q-1 6 0 28l19 208q1 22 7 34.5t23 28.5l38 40l58 -66zM633 -5l62 -72l-31 -28q-16 -15 -28.5 -19t-41.5 -4h-257q-29 0 -43.5 4.5t-25.5 18.5
l-24 26l82 74h307zM674 445l56 -63l-68 -60h-306l-57 60l68 63h307zM393 773l-60 65l30 32q14 15 26.5 20.5t31.5 5.5h278q34 0 54 -26l29 -31l-80 -66h-309zM679 302l68 61l34 -35q15 -16 17 -40q1 -8 0 -29l-20 -227q-1 -13 -4 -26q-4 -13 -24 -31l-38 -35l-60 66z
M719 755l79 66l25 -29q16 -19 17 -37q1 -6 -1 -25l-18 -224q-4 -29 -11 -44.5t-23 -29.5l-37 -33l-57 60z" />
    <glyph glyph-name="uniE646" unicode="&#xe646;" 
d="M323 462l-64 -57l-37 35q-15 16 -17 34q-2 21 1 46l17 203q4 27 10.5 42t21.5 30l36 33l60 -67zM609 -5l62 -66l-34 -32q-15 -15 -29.5 -20t-42.5 -5h-293l-61 60l72 63h326zM364 322q-23 0 -34 5t-26 22l-30 36l70 60h303l57 -60l-68 -63h-272zM374 773l-63 71l26 24
q19 18 34 23t48 5h233q38 0 51 -4.5t30 -23.5l22 -24l-80 -71h-301zM657 306l69 62l54 -62l-22 -267q-3 -24 -8.5 -35.5t-21.5 -25.5l-37 -34l-60 66zM698 758l75 66l28 -32q17 -18 18 -36q1 -5 -1 -26l-23 -259l-71 -71l-52 59z" />
    <glyph glyph-name="uniE647" unicode="&#xe647;" 
d="M685 384q-8 0 -14 -6t-6 -15q0 -7 6 -13t14 -6q11 0 18.5 6t7.5 13q0 9 -7.5 15t-18.5 6zM360 534q-12 0 -21.5 -7t-9.5 -19q0 -11 9.5 -18t21.5 -7q11 0 18.5 7t7.5 18q0 12 -7.5 19t-18.5 7zM731 199l15 -52l-56 31q-52 -11 -62 -11q-73 0 -124 44t-51 106.5t51 106
t124 43.5q70 0 122.5 -44t52.5 -106q0 -65 -72 -118zM428 271q-32 0 -73 11l-73 -37l21 63q-82 58 -82 138q0 74 60.5 124.5t146.5 50.5q76 0 135 -40.5t72 -103.5q-11 2 -20 2q-73 0 -124 -48t-51 -116q0 -20 6 -44h-18zM512 831q-91 0 -173.5 -35.5t-142.5 -95.5
t-95.5 -142.5t-35.5 -173.5t35.5 -173.5t95.5 -142.5t142.5 -95.5t173.5 -35.5t173.5 35.5t142.5 95.5t95.5 142.5t35.5 173.5t-35.5 173.5t-95.5 142.5t-142.5 95.5t-173.5 35.5zM504 483q12 0 19 7t7 18q0 12 -7 19t-19 7t-21 -7t-9 -19q0 -11 9 -18t21 -7zM571 384
q-8 0 -14 -6t-6 -15q0 -7 6 -13t14 -6q11 0 18.5 6t7.5 13q0 9 -7.5 15t-18.5 6z" />
    <glyph glyph-name="uniE648" unicode="&#xe648;" 
d="M424.5 301q-11.5 5 -25 0.5t-20.5 -16t-4 -23t14.5 -17t25 -1t21 16t4 23.5t-15 17zM463 317q-11 4 -17 -6.5t4 -15.5q11 -4 18 7q6 11 -5 15zM527 266q-15 -35 -53.5 -51t-76.5 -4q-36 11 -50 42.5t2 63.5t51.5 47.5t71.5 5.5q38 -9 54 -40t1 -64zM438.5 421.5
q-75.5 -7.5 -125.5 -48t-45 -90t62 -79t132.5 -22t125.5 47.5t45 89.5t-62 79.5t-132.5 22.5zM808 419q-3 -9 -11.5 -13t-17.5 -1.5t-13.5 11.5t-1.5 18q9 27 3 57.5t-27 54t-50 32.5t-59 3q-9 -2 -17.5 3t-10.5 14.5t3.5 17.5t14.5 10q42 9 83 -4t70.5 -45.5t38.5 -75
t-5 -82.5zM691 457q7 21 -7.5 37.5t-36.5 11.5q-8 -1 -15 3.5t-9 12.5t2.5 15t13.5 8q44 10 74.5 -23.5t16.5 -76.5q-3 -8 -10.5 -12t-15 -1.5t-11.5 10t-2 15.5v0zM463 138q-64 0 -122 19t-95.5 56.5t-37.5 85.5q0 80 90 171q58 57 116.5 80t83.5 -3q22 -22 7 -70
q-3 -10 6 -10q8 1 8 3q48 19 84 19.5t52 -20.5q15 -22 0 -60q-3 -6 -1.5 -9t3.5 -4t8 -3q30 -9 52 -30t22 -53q0 -62 -79.5 -117t-196.5 -55zM512 829q-90 0 -172.5 -35.5t-142 -95t-95 -142t-35.5 -172.5t35.5 -172.5t95 -142t142 -95t172.5 -35.5t172.5 35.5t142 95
t95 142t35.5 172.5t-35.5 172.5t-95 142t-142 95t-172.5 35.5z" />
    <glyph glyph-name="uniE649" unicode="&#xe649;" 
d="M436 803h-305q-25 0 -37.5 -13.5t-12.5 -37.5v-161v-136q0 -27 13.5 -42.5t36.5 -15.5h155h150q27 0 38.5 11.5t11.5 39.5v304q0 22 -14 36.5t-36 14.5zM384 591q-5 -16 -22 -16h-79h-79q-12 0 -18.5 10.5t-2.5 23.5q5 16 22 16h60h97q13 0 19.5 -10t2.5 -24zM892 803
h-304q-23 0 -37 -13.5t-14 -37.5v-304q0 -21 15 -36t36 -15h150h154q21 0 36 14.5t15 36.5v304q0 24 -14 37.5t-37 13.5zM816 575h-51q1 -34 0 -51q0 -8 -8 -16.5t-17 -8.5t-17 7.5t-8 17.5v51q-20 -1 -51 0q-8 0 -17 8t-9 17t8 17.5t18 8.5h51q-1 20 0 50q0 11 7.5 18.5
t17.5 7.5t17.5 -7.5t7.5 -18.5v-50h51q11 -1 18.5 -9t7.5 -17q0 -8 -9 -16.5t-17 -8.5zM436 347h-305q-28 0 -39 -11t-11 -40v-305q0 -22 15 -36t35 -14h152h153q27 0 38.5 11.5t11.5 38.5v305q0 21 -14 36t-36 15zM375 52q-9 -9 -20 -9t-20 8q-17 18 -45 46l-5 8
q-47 -48 -53 -53q-15 -15 -33 -5q-21 11 -15 31q2 8 9 16l50 50q-1 0 -3 2.5t-3 3.5l-15 14l-17 18l-15 15q-15 15 -2 34q5 9 14.5 12.5t18.5 0.5q6 -3 13 -9q9 -9 50 -51q13 14 14 15q3 3 34 35q23 23 44 2q20 -20 -3 -43q-1 -2 -17.5 -18.5t-25.5 -24.5q0 -1 -5 -6
q25 -26 27 -27q20 -20 24 -25q9 -9 8.5 -20.5t-9.5 -19.5zM943 296q0 19 -16.5 35t-34.5 16h-304q-19 0 -35 -16.5t-16 -34.5v-305q0 -17 16 -33.5t35 -16.5h150h154q51 0 51 61v294zM816 68h-77h-73q-27 0 -27 25q0 10 7.5 17.5t17.5 7.5h152q10 0 18 -7t8 -18
q0 -10 -9 -17.5t-17 -7.5zM816 169h-68h-84q-8 0 -16.5 7.5t-8.5 17.5t7 18t15 8h75h80q9 0 17 -8t8.5 -17.5t-8 -17.5t-17.5 -8z" />
    <glyph glyph-name="uniE64A" unicode="&#xe64a;" 
d="M512 824q-90 0 -172.5 -35t-141.5 -94.5t-94.5 -141.5t-35.5 -172.5t35.5 -172.5t94.5 -141.5t141.5 -94.5t172.5 -35t172 35t141.5 94.5t94.5 141.5t35 172.5t-35 172.5t-94.5 141.5t-141.5 94.5t-172 35zM693 159q-43 16 -87 50q-45 -25 -99 -25q-55 0 -99.5 26.5
t-68.5 74.5t-24 108q0 59 24 108.5t69 75t100 25.5q56 0 101 -26.5t68.5 -74.5t23.5 -108q0 -50 -15 -90t-46 -69q38 -26 69 -38zM629.5 478.5q-16.5 36.5 -49 57t-71.5 20.5q-60 0 -99.5 -41t-39.5 -122q0 -79 39 -121.5t100 -42.5q28 0 54 11q-25 16 -53 23l13 39
q46 -13 76 -38q47 43 47 129q0 49 -16.5 85.5z" />
    <glyph glyph-name="uniE64B" unicode="&#xe64b;" 
d="M506 540q-8 -39 -22 -77l-45 -119h137l-42 112q-19 51 -28 84zM512 824q-90 0 -172.5 -35t-141.5 -94.5t-94.5 -141.5t-35.5 -172.5t35.5 -172.5t94.5 -141.5t141.5 -94.5t172.5 -35t172 35t141.5 94.5t94.5 141.5t35 172.5t-35 172.5t-94.5 141.5t-141.5 94.5t-172 35z
M640 178l-47 123h-169l-44 -123h-57l155 405h58l165 -405h-61z" />
    <glyph glyph-name="uniE64C" unicode="&#xe64c;" 
d="M512 824q-90 0 -172.5 -35t-141.5 -94.5t-94.5 -141.5t-35.5 -172.5t35.5 -172.5t94.5 -141.5t141.5 -94.5t172.5 -35t172 35t141.5 94.5t94.5 141.5t35 172.5t-35 172.5t-94.5 141.5t-141.5 94.5t-172 35zM673.5 335q-4.5 -5 -11.5 -5t-12 5l-122 122v-260
q0 -6 -4.5 -11t-11.5 -5t-12 5t-5 11v260l-121 -122q-5 -5 -12 -5t-12 5t-5 12t5 12l150 150h1q0 1 1 1l1 1q1 0 1 1h1q1 0 1 1h1h2h1h1h2h1h1h1h1l1 -1h1h1q0 -1 1 -1l1 -1l1 -1h1l149 -150q5 -5 5 -12t-4.5 -12zM695 547h-366q-7 0 -12 5t-5 11.5t5 11.5t12 5h366
q7 0 11.5 -5t4.5 -11.5t-4.5 -11.5t-11.5 -5z" />
    <glyph glyph-name="uniE64D" unicode="&#xe64d;" 
d="M962 384q0 186 -132 318t-318 132t-318 -132t-132 -318t132 -318t318 -132t318 132t132 318zM310 210l173 174l-173 174l28 28l174 -173l174 173l28 -28l-173 -174l173 -174l-28 -28l-174 173l-174 -173z" />
    <glyph glyph-name="uniE64E" unicode="&#xe64e;" 
d="M686 182l28 28l-173 174l173 174l-28 28l-174 -173l-174 173l-28 -28l173 -174l-173 -174l28 -28l174 173zM962 384q0 186 -132 318t-318 132t-318 -132t-132 -318t132 -318t318 -132t318 132t132 318zM103 384q0 111 54.5 205.5t149 149t205.5 54.5t205.5 -54.5
t149 -149t54.5 -205.5t-54.5 -205.5t-149 -149t-205.5 -54.5t-205.5 54.5t-149 149t-54.5 205.5z" />
    <glyph glyph-name="uniE64F" unicode="&#xe64f;" horiz-adv-x="1414" 
d="M0 322l614 -450v310q10 0 27.5 0.5t71.5 7t106.5 18t123.5 36.5t132.5 58.5t125 89t108 124t74 167t31.5 213.5q-64 -106 -132.5 -189t-129.5 -133t-122 -84.5t-113.5 -47.5t-100 -17t-84 2t-63 13.5t-41 14t-14.5 7.5v310z" />
    <glyph glyph-name="uniE650" unicode="&#xe650;" 
d="M934 701q0 44 -31 74.5t-75 30.5h-633q-44 0 -74.5 -30.5t-30.5 -74.5v-633q0 -44 30.5 -75t74.5 -31h633q44 0 75 31t31 75v633zM776 596h-106v-106h106v-105h-106v-317h-106v317h-105v105h105v85v53q0 27 25 50t54 23h53h80v-105z" />
    <glyph glyph-name="uniE651" unicode="&#xe651;" 
d="M811 834h-598q-63 0 -107.5 -44t-44.5 -107v-598q0 -62 44.5 -106.5t107.5 -44.5h598q63 0 107 44.5t44 106.5v598q0 63 -44 107t-107 44zM399 103h-113v394h113v-394zM341.5 520q-25.5 0 -43.5 18.5t-18 44t18 43.5t43.5 18t43.5 -18t18 -43.5t-18 -44t-43.5 -18.5z
M794 103h-114v203q0 24 -16.5 40.5t-40.5 16.5q-23 -1 -39 -17t-16 -39v-204h-112h-1v394h1h112v-91q20 40 43 54.5t56 14.5q52 0 89.5 -41t37.5 -99v-232z" />
    <glyph glyph-name="uniE652" unicode="&#xe652;" 
d="M962 722q0 47 -33 79.5t-80 32.5h-675q-47 0 -80 -32.5t-33 -79.5v-675q0 -47 33 -80t80 -33h675q47 0 80 33t33 80v675zM813 503v-18q0 -57 -16.5 -113.5t-50 -108.5t-80.5 -92t-113 -63.5t-141 -23.5q-117 0 -216 63q17 -2 34 -2q99 0 176 60q-45 1 -80 28.5t-49 69.5
q13 -2 31 -2q14 0 32 5q-48 9 -78.5 48t-30.5 90v2q0 -7 19.5 -12t40.5 -6q-31 21 -52.5 52t-21.5 66q0 32 23 71q53 -65 129.5 -104.5t162.5 -43.5q-2 12 -2 32q0 59 41.5 100t99.5 41q62 0 103 -44q48 9 90 34q-16 -51 -62 -78q10 1 19 3.5t13.5 4.5t15.5 7t16 7h-4h-8h-5
h5h8h4q-5 -8 -14.5 -25t-18 -28t-20.5 -20z" />
    <glyph glyph-name="uniE653" unicode="&#xe653;" 
d="M721 472v0l-85 84q-5 5 -12 2.5t-7 -10.5v-65q0 -5 -3 -8t-8 -3h-324q-4 0 -7.5 -3.5t-3.5 -7.5v-30q0 -4 3.5 -7.5t7.5 -3.5h464q7 0 10 7t-3 12zM721 472zM307 254v0l85 -85q5 -5 12 -2t7 10v66q0 4 3 7.5t8 3.5h324q4 0 7.5 3t3.5 8v29q0 5 -3.5 8t-7.5 3h-464
q-7 0 -10 -6.5t3 -12.5zM307 254zM514 -72q-88 0 -169 34.5t-139 92.5t-92.5 138.5t-34.5 169t34.5 169t92.5 139t139 93t169 34.5t168.5 -34.5t139 -93t93 -139t34.5 -169t-34.5 -169t-93 -138.5t-139 -92.5t-168.5 -34.5zM514 762q-108 0 -200 -53.5t-145.5 -145.5
t-53.5 -200.5t53.5 -200.5t145.5 -145.5t200 -53.5t200 53.5t145.5 145.5t53.5 200.5t-53.5 200.5t-145.5 145.5t-200 53.5zM514 762z" />
    <glyph glyph-name="uniE654" unicode="&#xe654;" 
d="M507 800h29q79 -4 146 -31q73 -29 132.5 -83t94.5 -124q45 -88 47 -189v-16q-2 -100 -46 -187q-43 -87 -120 -147q-78 -62 -175 -83q-33 -7 -79 -10h-29q-57 3 -103 16q-125 35 -210 133q-59 67 -87 152q-19 60 -21 126v16q2 123 68 225q70 111 189 164q75 34 164 38z
M424 707q-34 -42 -61 -117q12 -3 63 -10q48 -5 78 -6v95v95q-43 -9 -80 -57zM539 574q54 1 105 10q17 2 35 6q-31 89 -75 135q-31 31 -65 39v-95v-95zM389 743q-94 -33 -162 -106q46 -25 103 -39q33 99 86 153q-8 -2 -27 -8zM626 751q4 -3 24 -26q38 -52 63 -127
q55 14 102 39q-78 85 -189 114zM204 610q-78 -102 -83 -228h174q2 95 25 183q-64 16 -116 45zM723 565q22 -88 24 -183h55h64h55q-5 127 -83 228q-50 -28 -115 -45zM330 383q15 -1 87 -1h87v158q-80 1 -150 16q-22 -81 -24 -173zM539 540v-158h87q70 0 86 1q-2 92 -23 174
q-71 -16 -150 -17zM121 348q5 -127 83 -228q51 28 116 45q-23 87 -25 183h-174zM330 347q2 -93 24 -174q69 16 150 17v158h-87q-70 0 -87 -1zM539 348v-158q78 -1 150 -16q22 85 23 174h-86h-87zM747 348q-2 -94 -24 -183q64 -17 115 -45q78 101 83 228h-87h-87zM363 140
q31 -88 76 -135q30 -31 65 -39v95v95q-75 -2 -141 -16zM539 156v-95v-95q43 9 80 57q34 43 60 117q-14 3 -64 11q-50 5 -76 5zM227 93q79 -85 189 -114q-54 54 -86 153q-54 -14 -103 -39zM713 132q-33 -99 -87 -153q111 29 189 114q-45 24 -102 39z" />
    <glyph glyph-name="uniE655" unicode="&#xe655;" 
d="M132 669zM56 745h905v-151h-905v151zM132 387zM56 462h905v-151h-905v151zM132 104zM56 179h905v-150h-905v150z" />
    <glyph glyph-name="uniE656" unicode="&#xe656;" 
d="M954 439h-674l309 310l-77 77l-442 -442l442 -442l77 77l-309 310h674v110z" />
    <glyph glyph-name="uniE657" unicode="&#xe657;" 
d="M70 329h674l-309 -310l77 -77l442 442l-442 442l-77 -77l309 -310h-674v-110z" />
    <glyph glyph-name="uniE658" unicode="&#xe658;" 
d="M512 290l-461 273v-429q0 -33 25.5 -56t61.5 -23h748q36 0 61.5 23t25.5 56v429l-461 -273v0zM138 713q-34 0 -58.5 -20.5t-27.5 -50.5q-1 -4 -1 -8l461 -273l461 273q0 5 -1 9q-3 29 -27.5 49.5t-58.5 20.5h-748v0zM138 713z" />
    <glyph glyph-name="uniE659" unicode="&#xe659;" 
d="M927 519l-79 63l-311 237q-12 9 -27 9t-27 -9l-310 -237q-1 0 -1.5 -0.5t-0.5 -1.5v1l-78 -62h1q-30 -23 -30 -59v-443q0 -30 22 -51.5t52 -21.5h745q31 0 52.5 21.5t21.5 51.5v443q0 36 -30 59zM918 -33q-5 -4 -10 0l-88 81l-2 2l-277 255q-13 12 -30.5 12t-30.5 -12
l-277 -255l-3 -3l-86 -79q-6 -5 -11 0q-4 5 0 10l250 268l-242 230q-5 6 0 11q2 2 4 2h791q4 0 6 -2q4 -6 -1 -10l-245 -234l1 1l1 1l250 -267q5 -5 0 -11z" />
  </font>
</defs>
</svg>
